<?xml version="1.0" encoding="UTF-8" standalone="no"?><!DOCTYPE svg PUBLIC "-//W3C//DTD SVG 1.1//EN" "http://www.w3.org/Graphics/SVG/1.1/DTD/svg11.dtd">
<svg xmlns="http://www.w3.org/2000/svg"
	xmlns:xlink="http://www.w3.org/1999/xlink" version="1.1" width="200" height="44" viewBox="0 0 200 44" xml:space="preserve">
	<defs></defs>
	<g transform="matrix(0.63 0 0 0.63 105.87 23.27)" id="uHh0E1tChFL34Vcr66Xkd">
		<g style="" vector-effect="non-scaling-stroke">
			<g transform="matrix(1 0 0 1 0 5.58)" id="ZG4m_VEiU_jlcmICRtQ5n">
				<g style="" vector-effect="non-scaling-stroke">
					<g transform="matrix(1 0 0 1 -72.06 0.08)" style="" id="Aczyl6EvP9jLGggJwnJD5">
						<text xml:space="preserve" font-family="Lilita One" font-size="47" font-style="cursive" font-weight="normal" letter-spacing="0.094" line-height="1" style="stroke: none; stroke-width: 1; stroke-dasharray: none; stroke-linecap: butt; stroke-dashoffset: 0; stroke-linejoin: miter; stroke-miterlimit: 4; fill: rgb(47,177,163); fill-rule: nonzero; opacity: 1; white-space: pre;">
							<tspan x="-47.57" y="14.32">T</tspan>
							<tspan x="-25.52" y="14.32">e</tspan>
							<tspan x="-2.59" y="14.32">c</tspan>
							<tspan x="17.43" y="14.32">h</tspan>
						</text>
					</g>
					<g transform="matrix(1 0 0 1 44.47 -0.08)" style="" id="m9pMjebQ9CXImmBH8Rx4A">
						<text xml:space="preserve" font-family="Lilita One" font-size="47" font-style="cursive" font-weight="normal" letter-spacing="0.094" line-height="1" style="stroke: none; stroke-width: 1; stroke-dasharray: none; stroke-linecap: butt; stroke-dashoffset: 0; stroke-linejoin: miter; stroke-miterlimit: 4; fill: rgb(147,165,162); fill-rule: nonzero; opacity: 1; white-space: pre;">
							<tspan x="-75.15" y="14.31">P</tspan>
							<tspan x="-49.44" y="14.31">o</tspan>
							<tspan x="-25.24" y="14.31">n</tspan>
							<tspan x="0.75" y="14.31">j</tspan>
							<tspan x="13.58" y="14.31">i</tspan>
							<tspan x="26.51" y="14.31">k</tspan>
							<tspan x="50.85" y="14.31">a</tspan>
						</text>
					</g>
				</g>
			</g>
			<g transform="matrix(0.35 0 0 0.35 -73.24 -19.19)" id="bWT-MZ8tiihfJKg4kWBME">
				<g style="" vector-effect="non-scaling-stroke">
					<g transform="matrix(1 0 0 1 0 0)" id="R-156ZmDr053Cyo5FB7eN">
						<path style="stroke: none; stroke-width: 1; stroke-dasharray: none; stroke-linecap: butt; stroke-dashoffset: 0; stroke-linejoin: miter; stroke-miterlimit: 4; fill: rgb(179,181,179); fill-rule: nonzero; opacity: 1;" vector-effect="non-scaling-stroke" transform=" translate(-40.02, -40.01)" d="M 70.2 0.8 L 5.3 24.5 C 0.6 26.4 0 29.2 0 30.7 C 0 32.2 0.8 35 5.6 36.6 L 24.200000000000003 43 L 4.6 62.5 C 1.2999999999999998 65.8 1.2999999999999998 71.1 4.6 74.4 L 5.6 75.4 C 8.8 78.60000000000001 14.299999999999999 78.60000000000001 17.5 75.4 L 37 55.8 L 43.4 74.4 C 45.1 79.30000000000001 47.9 80 49.4 80 L 49.4 80 C 50.9 80 53.6 79.3 55.5 74.6 L 79.2 9.8 C 80.7 6.1000000000000005 79.9 3.700000000000001 79 2.4000000000000004 C 77.3 0 73.8 -0.7 70.2 0.8 z" stroke-linecap="round" />
					</g>
					<g transform="matrix(1 0 0 1 0.58 -0.61)" id="m5HZhe681wyGY-PLMsPmi">
						<path style="stroke: none; stroke-width: 1; stroke-dasharray: none; stroke-linecap: butt; stroke-dashoffset: 0; stroke-linejoin: miter; stroke-miterlimit: 4; fill: rgb(255,255,255); fill-rule: nonzero; opacity: 1;" vector-effect="non-scaling-stroke" transform=" translate(-40.6, -39.4)" d="M 7.8 30.5 C 7.8 30.5 73.39999999999999 6.600000000000001 73.39999999999999 6.600000000000001 C 73.39999999999999 6.600000000000001 49.49999999999999 72.19999999999999 49.49999999999999 72.19999999999999 C 49.49999999999999 72.19999999999999 41.49999999999999 49.39999999999999 41.099999999999994 48.499999999999986 C 40.699999999999996 47.59999999999999 39.699999999999996 46.899999999999984 38.599999999999994 46.79999999999998 C 37.599999999999994 46.69999999999998 36.599999999999994 47.09999999999998 35.89999999999999 47.69999999999998 L 12.9 70.8 C 12.200000000000001 71.5 10.9 71.5 10.2 70.8 L 9.2 69.8 C 8.5 69.1 8.5 67.8 9.2 67.1 L 32.3 44 C 33 43.3 33.3 42.3 33.199999999999996 41.2 C 33.099999999999994 40.2 32.3 39.1 31.099999999999994 38.7 C 29.9 38.2 7.8 30.5 7.8 30.5 z" stroke-linecap="round" />
					</g>
				</g>
			</g>
		</g>
	</g>
</svg>